<?xml version="1.0" encoding="UTF-8"?>
<svg width="23px" height="23px" viewBox="0 0 23 23" version="1.1" xmlns="http://www.w3.org/2000/svg" xmlns:xlink="http://www.w3.org/1999/xlink">
    <!-- Generator: Sketch 43.2 (39069) - http://www.bohemiancoding.com/sketch -->
    <title>search</title>
    <desc>Created with Sketch.</desc>
    <defs></defs>
    <g id="Page-1" stroke="none" stroke-width="1" fill="none" fill-rule="evenodd" opacity="0.300000012">
        <g id="Desktop" transform="translate(-304.000000, -179.000000)" fill="#000000">
            <g id="search" transform="translate(304.000000, 179.000000)">
                <path d="M15.9722222,14.0555556 L14.95,14.0555556 L14.5666667,13.6722222 C15.8444444,12.2666667 16.6111111,10.35 16.6111111,8.30555556 C16.6111111,3.70555556 12.9055556,0 8.30555556,0 C3.70555556,0 0,3.70555556 0,8.30555556 C0,12.9055556 3.70555556,16.6111111 8.30555556,16.6111111 C10.35,16.6111111 12.2666667,15.8444444 13.6722222,14.5666667 L14.0555556,14.95 L14.0555556,15.9722222 L20.4444444,22.3611111 L22.3611111,20.4444444 L15.9722222,14.0555556 L15.9722222,14.0555556 Z M8.30555556,14.0555556 C5.11111111,14.0555556 2.55555556,11.5 2.55555556,8.30555556 C2.55555556,5.11111111 5.11111111,2.55555556 8.30555556,2.55555556 C11.5,2.55555556 14.0555556,5.11111111 14.0555556,8.30555556 C14.0555556,11.5 11.5,14.0555556 8.30555556,14.0555556 L8.30555556,14.0555556 Z" id="Shape"></path>
            </g>
        </g>
    </g>
</svg>